<svg xmlns="http://www.w3.org/2000/svg" viewBox="0 0 100 100" enable-background="new 0 0 100 100"><circle fill="#24396d" cx="50" cy="50" r="50"/><path fill="#1b3460" d="m31.727 27.483l-30.997 30.996c3.612 21.14 20.48 37.75 41.752 40.957l3.583-3.582 17.708-17.709.127-1.5-3.711 1.303 17.492-17.03-45.954-33.432"/><path fill="#e2c6aa" d="m65.857 72.77c0 4.148-3.092 7.508-6.901 7.508h-18.02c-3.811 0-6.9-3.359-6.9-7.508v-40.461c0-4.148 3.089-7.509 6.9-7.509h18.02c3.81 0 6.901 3.36 6.901 7.509v40.461z"/><g fill="#131a26"><path d="m45.521 73.58c0 1.133-.918 2.051-2.049 2.051-1.132 0-2.05-.918-2.05-2.051v-5.871c0-1.133.917-2.051 2.05-2.051 1.131 0 2.049.918 2.049 2.051v5.871"/><path d="m58.47 73.58c0 1.133-.917 2.051-2.05 2.051-1.131 0-2.049-.918-2.049-2.051v-5.871c0-1.133.918-2.051 2.049-2.051 1.133 0 2.05.918 2.05 2.051v5.871"/></g><path fill="#ff2c2c" d="m70.61 29.807c-4.397-4.761-10.1-8.677-16.594-9.779-.187-.032-3.271-.379-4.01-.294-.74-.085-3.826.262-4.01.294-6.493 1.102-12.198 5.02-16.594 9.779-6.653 7.207-15.355 19.87-8.5 29.436 3.02 4.221 8.04 6.01 13.146 6.662.087-.039 16.02-7.07 31.816.002.006.004.013.006.021.01 5.134-.648 10.187-2.43 13.228-6.674 6.856-9.567-1.847-22.23-8.5-29.436"/><g fill="#fff"><circle cx="49.947" cy="40.814" r="17.67"/><path d="m26.2 45.06c0-3.095-.801-6-2.2-8.533-4.559 6.658-7.83 14.883-3.749 21.73 3.642-3.236 5.949-7.941 5.949-13.197"/><path d="m73.76 45.06c0 5.268 2.318 9.984 5.975 13.221 4.109-6.863.818-15.11-3.756-21.785-1.41 2.538-2.219 5.455-2.219 8.564"/></g></svg>